<?xml version="1.0" encoding="UTF-8" standalone="no"?>
<svg
   xmlns:dc="http://purl.org/dc/elements/1.1/"
   xmlns:cc="http://creativecommons.org/ns#"
   xmlns:rdf="http://www.w3.org/1999/02/22-rdf-syntax-ns#"
   xmlns:svg="http://www.w3.org/2000/svg"
   xmlns="http://www.w3.org/2000/svg"
   viewBox="0 0 3558.7068 1364.8134"
   height="1364.8134"
   width="3558.7068"
   xml:space="preserve"
   id="svg2"
   version="1.1"><metadata
     id="metadata8"><rdf:RDF><cc:Work
         rdf:about=""><dc:format>image/svg+xml</dc:format><dc:type
           rdf:resource="http://purl.org/dc/dcmitype/StillImage" /></cc:Work></rdf:RDF></metadata><defs
     id="defs6"><clipPath
       id="clipPath18"
       clipPathUnits="userSpaceOnUse"><path
         id="path16"
         d="M 0,1023.607 H 2669.029 V 0 H 0 Z" /></clipPath></defs><g
     transform="matrix(1.3333333,0,0,-1.3333333,0,1364.8133)"
     id="g10"><g
       id="g12"><g
         clip-path="url(#clipPath18)"
         id="g14"><g
           transform="translate(2264.0359,346.9945)"
           id="g20"><path
             id="path22"
             style="fill:#f40009;fill-opacity:1;fill-rule:nonzero;stroke:none"
             d="M 0,0 C 0,224.138 62.892,275.181 114.466,275.181 186.711,275.083 218.38,195.509 218.38,125.118 218.38,-0.854 38.7,0 0,0 m 169.846,-247.183 c -146.937,0 -157.96,149.396 -165.658,185.587 88.619,0 387.771,0.113 387.943,187.677 0.124,134.409 -146.876,200.452 -260.539,200.452 -213.834,0 -350.999,-128.713 -350.999,-347.366 0,-143.874 62.301,-206.296 81.885,-227.648 0,0 -0.076,-0.012 -0.099,-0.024 19.583,-20.154 46.309,-41.912 81.722,-60.051 32.026,-15.062 88.407,-34.338 167.536,-34.498 226.276,-0.087 285.708,173.875 293.357,196.844 0,0 -88.371,-101.245 -235.148,-100.973" /></g><g
           transform="translate(1092.387,54.2313)"
           id="g24"><path
             id="path26"
             style="fill:#f40009;fill-opacity:1;fill-rule:nonzero;stroke:none"
             d="m 0,0 c -129.825,0 -132.555,212.45 -132.445,293.715 -0.11,50.067 -1.335,279.334 139.821,279.334 123.66,0 130.517,-196.807 130.406,-286.599 C 137.782,196.67 126.253,0 0,0 m 16.421,622.188 c -183.302,0.162 -365.603,-104.63 -365.924,-337.27 0,-22.501 2.767,-47.62 6.363,-66.871 1.977,-11.355 7.512,-32.002 13.171,-50.424 -41.75,-54.997 -121.843,-134.508 -239.509,-134.459 -161.827,0.099 -277.529,115.887 -277.491,392.094 0.209,276.221 108.485,420.6 254.125,420.488 186.366,0 269.399,-215.007 283.114,-247.021 v 240.968 l -101.22,33.508 c -34.028,11.257 -68.848,20.142 -104.285,25.466 -25.985,3.905 -54.367,6.451 -85.726,6.499 -283.992,0.162 -491.277,-216.169 -491.426,-495.378 -0.333,-277.838 188.122,-463.958 459.831,-464.019 188.837,-0.05 289.551,96.23 333.688,152.535 C -263.852,43.876 -177.42,-49.647 1.519,-49.795 249.16,-49.919 374.24,108.795 374.24,290.973 374.486,472.63 256.412,622.041 16.421,622.188" /></g><g
           transform="translate(2097.1599,681.2289)"
           id="g28"><path
             id="path30"
             style="fill:#f40009;fill-opacity:1;fill-rule:nonzero;stroke:none"
             d="m 0,0 h -120.299 l -81.475,-94.932 c -1.841,-2.519 -3.967,-5.152 -6.488,-8.092 -6.696,-7.773 -96.747,-112.972 -145.603,-170.056 l -0.112,0.012 -30.32,-35.573 c -0.075,-0.124 -0.274,-0.334 -0.335,-0.421 v 0.372 c -0.185,-0.198 -0.283,-0.335 -0.283,-0.335 l 0.283,542.282 -204.702,0.111 V 131.592 c 0,-25.009 -0.42,-788.513 -0.42,-788.513 l 204.751,-0.112 0.075,209.25 47.768,55.33 150.632,-264.58 H 19.633 l -239.793,402.041 z" /></g><g
           transform="translate(2241.7102,931.8329)"
           id="g32"><path
             id="path34"
             style="fill:#f40009;fill-opacity:1;fill-rule:nonzero;stroke:none"
             d="M 0,0 C 12.368,7.142 19.422,21.734 13.22,32.596 7.203,43.395 -8.378,45.532 -21.736,38.007 -35.165,30.347 -41.27,16.001 -35.165,5.24 -29.049,-5.684 -12.542,-7.302 0,0" /></g><g
           transform="translate(1860.0803,862.0834)"
           id="g36"><path
             id="path38"
             style="fill:#f40009;fill-opacity:1;fill-rule:nonzero;stroke:none"
             d="m 0,0 c 68.564,9.144 96.785,72.344 96.785,72.344 0,0 -39.6,-25.799 -72.802,-13.628 C 20.252,51.71 11.071,43.926 0.89,39.515 -56.775,17.175 -70.947,70.195 -30.235,105.236 43.703,168.882 180.239,150.15 211.239,103.717 244.366,54.23 223.62,-0.507 194.93,-41.01 c -31.15,-43.604 -86.234,-72.802 -151.535,-69.972 -17.001,0.779 -24.342,3.57 -24.342,3.57 19.819,6.909 32.385,15.619 56.763,36.179 29.347,24.429 53.379,58.962 69.43,97.638 9.168,22.191 20.523,54.303 26.22,65.239 5.633,11.035 8.66,16.62 11.701,21.24 C 147.112,98.119 105.1,54.946 73.419,0.605 59.631,-22.908 40.132,-50.499 21.487,-73.074 c -22.081,-26.849 -45.16,-42.677 -45.16,-42.677 0,0 3.434,-2.225 10.946,-4.226 17.398,-4.424 70.442,-17.113 135.262,-3.089 60.273,13.011 123.611,44.729 148.558,118.964 16.816,50.462 -0.619,113.54 -83.281,149.496 C 87.035,189.146 -81.982,139.079 -88.791,53.119 -89.605,27.418 -69.996,-9.193 0,0" /></g><g
           transform="translate(2290.8005,856.7826)"
           id="g40"><path
             id="path42"
             style="fill:#f40009;fill-opacity:1;fill-rule:nonzero;stroke:none"
             d="M 0,0 C 30.347,33.93 41.058,27.467 42.628,25.38 47.868,19.077 40.021,8.513 35.684,2.693 15.321,-22.958 -21.722,-32.472 -21.722,-32.472 -15.409,-19.363 -7.39,-8.328 0,0 m -181.213,-89.42 c -2.361,-8.515 -1.843,-18.929 4.93,-25.084 13.912,-11.195 31.927,-4.843 46.309,1.31 17.484,9.28 32.62,22.859 47.25,37.798 0.099,-3.46 -1.531,-12.517 5.388,-25.912 6.857,-13.579 22.698,-19.657 36.437,-19.657 33.93,0.308 64.734,22.944 89.767,46.347 1.284,1.298 2.101,0.568 1.507,-0.557 -0.84,-1.235 -2.272,-4.732 -3.545,-7.784 -3.671,-9.44 -4.202,-22.524 3.348,-30.346 7.772,-8.414 21.154,-8.094 32.137,-6.352 40.676,10.849 73,50.413 93.956,84.997 -2.508,0 -11.183,0.063 -17.359,0 -6.698,-9.872 -14.704,-19.187 -22.786,-28.591 -4.608,-4.658 -17.953,-19.04 -28.629,-23.514 -8.031,-3.397 -16.123,-0.272 -5.338,18.917 12.999,23.316 49.882,91.744 49.882,91.744 l 4.596,7.155 34.721,0.135 8.278,16.595 c 0,0 -27.578,0 -34.041,-0.123 2.559,4.707 27.901,52.512 27.901,52.648 l -44.371,0.173 -29.977,-52.821 H 92.176 L 82.488,31.089 109.77,31.051 C 103.123,17.459 94.82,3.843 87.258,-9.625 71.442,-34.078 49.042,-55.689 24.676,-72.926 10.699,-82.007 -2.237,-90.582 -17.867,-91.125 c -27.838,-0.483 -19.288,30.371 -13.901,37.969 31.175,7.019 61.151,20.845 83.193,46.038 C 60.792,3.657 68.057,21.87 63.163,35.005 57.629,50.45 34.486,55.453 13.739,48.164 -4.362,41.898 -21.363,31.422 -42.679,8.81 c -21.844,-23.069 -28.8,-45.235 -41.576,-61.781 -9.453,-12.429 -17.881,-22.772 -33.671,-32.681 -12.802,-8.081 -16.767,-1.545 -12.369,7.068 1.816,3.459 46.719,86.319 46.719,86.319 0,0 20.992,39.515 20.56,38.836 -0.148,-0.779 0.667,1.32 -0.432,1.297 -1.371,0.023 -33.214,-0.087 -43.877,-0.087 0,0 -1.174,0.11 -1.853,-1.125 -0.544,-1.061 -60.161,-110.29 -60.161,-110.29 -4.536,-8.315 -9.244,-16.618 -11.874,-25.786" /></g></g></g></g></svg>