<?xml version="1.0" encoding="UTF-8" standalone="no"?>
<!-- Created with Inkscape (http://www.inkscape.org/) -->

<svg
   width="331.11472mm"
   height="92.741943mm"
   viewBox="0 0 331.11472 92.741943"
   version="1.1"
   id="svg5"
   xml:space="preserve"
   xmlns="http://www.w3.org/2000/svg"
   xmlns:svg="http://www.w3.org/2000/svg"><defs
     id="defs2"><clipPath
       clipPathUnits="userSpaceOnUse"
       id="clipPath4928"><rect
         style="fill:#000000;fill-rule:evenodd;stroke-width:1;stroke-linecap:round"
         id="rect4930"
         width="30.557629"
         height="13.429786"
         x="-49.004936"
         y="338.535" /></clipPath><clipPath
       clipPathUnits="userSpaceOnUse"
       id="clipPath4947"><rect
         style="fill:#000000;fill-rule:evenodd;stroke-width:1;stroke-linecap:round"
         id="rect4949"
         width="165.05013"
         height="78.827003"
         x="-85.498924"
         y="313.3298" /></clipPath></defs><g
     id="layer1"
     transform="translate(96.593089,-190.91551)"><g
       id="g1723"
       transform="matrix(1.3042943,0,0,1.3042943,109.70143,-77.927146)"><g
         style="fill:#d50025"
         transform="matrix(2.8213796,0,0,-2.8213796,80.63623,214.10295)"
         id="g26"><path
           id="path28"
           style="fill:#e31d1c;fill-opacity:1"
           d="M 2.5350445,2.8290366 C 1.8260452,2.8290366 0.46296166,2.7929872 -3.7881235e-5,-1.0051999e-5 -0.25203763,-1.5170085 -0.79194621,-2.9829721 -1.981945,-4.2149709 -2.5479445,-4.7999703 -3.3640919,-5.4150793 -4.1310912,-5.649079 h 1.6551095 c 3.03499692,0 4.5449548,0.4830177 5.5749538,1.5420167 1.8679981,1.936998 1.8389664,4.06410179 2.239966,6.9360989 z" /></g><g
         style="fill:#222220"
         transform="matrix(2.8213796,0,0,-2.8213796,47.733019,230.04205)"
         id="g38"><path
           style="fill:#000000"
           d="m 0,0 h -57.386 v -16.163 c -0.296,-0.177 -1.269,-0.256 -1.946,-0.256 -3.149,0 -4.088,2.202 -4.325,2.648 l -5.863,10.787 v -13.431 h -3.458 V 2.497 c 0.408,0.176 1.265,0.268 1.943,0.268 2.284,0 3.111,-0.577 4.327,-2.765 l 5.89,-10.986 V 2.632 H 4.852 C 4.852,0.922 2.1,0 0,0"
           id="path40" /></g></g><g
       id="g1717"
       transform="matrix(1.3042943,0,0,1.3042943,109.70143,-77.927146)"><g
         style="fill:#222220"
         transform="matrix(2.8213796,0,0,-2.8213796,3.7316292,262.15189)"
         id="g34"><path
           style="fill:#000000"
           d="M 0,0 C 0.481,1.893 1.108,3.838 1.828,5.609 2.607,4.019 3.238,2.042 3.779,0 Z M 4.41,9.091 H 0.117 C -1.671,5.838 -3.105,0.923 -4.303,-5.034 h 3.324 c 0.117,0.843 0.263,1.739 0.465,2.664 H 4.32 c 0.2,-0.925 0.374,-1.847 0.519,-2.664 H 8.918 C 7.81,0.102 6.05,5.84 4.41,9.091"
           id="path36" /></g><g
         style="fill:#222220"
         transform="matrix(2.8213796,0,0,-2.8213796,85.504803,269.68751)"
         id="g42"><path
           style="fill:#000000"
           d="M 0,0 C -1.441,0 -2.313,0.121 -2.763,0.777 -3.154,1.347 -3.18,2.313 -3.18,3.42 H 2.249 V 6.089 H -3.18 v 2.997 h 6.3 v 2.677 H -6.932 V 3.359 c 0,-1.978 0.328,-3.751 1.167,-4.595 1.086,-1.045 2.942,-1.436 5.401,-1.436 1.292,0 2.673,0.212 3.539,0.63 V 0.453 C 2.128,0.146 1.05,0 0,0"
           id="path44" /></g><g
         style="fill:#222220"
         transform="matrix(2.8213796,0,0,-2.8213796,-95.385975,267.49417)"
         id="g46"><path
           style="fill:#000000"
           d="M 0,0 C -0.39,0.569 -0.42,1.536 -0.42,2.643 H 5.013 V 5.311 H -0.42 v 2.998 h 6.303 v 2.676 H -4.167 V 2.583 c 0,-1.981 0.325,-3.751 1.167,-4.591 1.082,-1.051 2.938,-1.441 5.402,-1.441 1.29,0 2.667,0.211 3.538,0.63 v 2.494 C 4.89,-0.632 3.812,-0.777 2.76,-0.777 1.324,-0.777 0.451,-0.655 0,0"
           id="path48" /></g><g
         style="fill:#222220"
         transform="matrix(2.8213796,0,0,-2.8213796,-64.295501,246.05141)"
         id="g50"><path
           style="fill:#000000"
           d="m 0,0 c 0.202,0.983 1.191,1.039 2.182,1.039 1.503,0 2.757,-0.266 4.053,-0.656 V 2.932 C 5.632,3.293 4.13,3.741 2.005,3.741 0.292,3.741 -1.326,3.502 -2.53,2.365 -3.638,1.314 -3.876,-2.32 -2.646,-3.606 -1.749,-4.548 0.213,-5.063 1.703,-5.575 2.304,-5.782 3.524,-6.065 3.466,-7.1 3.392,-8.411 2.274,-8.377 1.282,-8.377 c -1.499,0 -2.969,0.299 -4.349,0.689 v -2.582 c 0.692,-0.389 2.129,-0.779 4.409,-0.779 1.56,0 3.448,0.3 4.559,1.139 1.442,1.109 1.696,4.554 0.362,6.092 -0.911,1.05 -3.274,1.554 -4.829,2.194 C 0.498,-1.237 -0.224,-1.086 0,0"
           id="path52" /></g><g
         style="fill:#222220"
         transform="matrix(2.8213796,0,0,-2.8213796,-26.744349,267.57684)"
         id="g54"><path
           style="fill:#000000"
           d="m 0,0 c -0.421,0.633 -0.539,1.922 -0.539,3.963 0,2.038 0.118,3.301 0.539,3.962 0.387,0.596 1.378,0.743 2.427,0.743 0.962,0 1.862,-0.116 2.825,-0.446 v 2.52 c -0.781,0.39 -1.984,0.601 -3.091,0.601 -2.074,0 -4.138,-0.299 -5.279,-1.472 -1.079,-1.112 -1.438,-3.448 -1.438,-5.908 0,-2.456 0.359,-4.772 1.438,-5.883 1.141,-1.199 3.205,-1.5 5.279,-1.5 1.018,0 2.099,0.15 2.818,0.511 l 0.572,2.613 C 4.498,-0.626 3.599,-0.748 2.427,-0.748 1.378,-0.748 0.387,-0.603 0,0"
           id="path56" /></g><g
         style="fill:#222220"
         transform="matrix(2.8213796,0,0,-2.8213796,32.83811,270.62421)"
         id="g58"><path
           style="fill:#000000"
           d="M 0,0 C 0,-2.067 1.741,-2.337 3.757,-2.337 V 3.752 H 9.515 V 6.421 H 3.757 v 2.997 h 6.3 v 2.677 L 0,12.095 Z"
           id="path60" /></g></g></g></svg>
