<?xml version="1.0" encoding="UTF-8" standalone="no"?>
<svg
   xmlns:dc="http://purl.org/dc/elements/1.1/"
   xmlns:cc="http://creativecommons.org/ns#"
   xmlns:rdf="http://www.w3.org/1999/02/22-rdf-syntax-ns#"
   xmlns:svg="http://www.w3.org/2000/svg"
   xmlns="http://www.w3.org/2000/svg"
   xmlns:sodipodi="http://sodipodi.sourceforge.net/DTD/sodipodi-0.dtd"
   xmlns:inkscape="http://www.inkscape.org/namespaces/inkscape"
   viewBox="0 0 1000 344.99899"
   height="344.99899"
   width="1000"
   xml:space="preserve"
   id="svg2"
   version="1.1"
   sodipodi:docname="Supreme.svg"
   inkscape:version="0.92.2 (5c3e80d, 2017-08-06)"><sodipodi:namedview
     pagecolor="#ffffff"
     bordercolor="#666666"
     borderopacity="1"
     objecttolerance="10"
     gridtolerance="10"
     guidetolerance="10"
     inkscape:pageopacity="0"
     inkscape:pageshadow="2"
     inkscape:window-width="1360"
     inkscape:window-height="706"
     id="namedview15"
     showgrid="false"
     inkscape:zoom="0.69747957"
     inkscape:cx="375.58683"
     inkscape:cy="177.0889"
     inkscape:window-x="-8"
     inkscape:window-y="-8"
     inkscape:window-maximized="1"
     inkscape:current-layer="svg2" /><metadata
     id="metadata8"><rdf:RDF><cc:Work
         rdf:about=""><dc:format>image/svg+xml</dc:format><dc:type
           rdf:resource="http://purl.org/dc/dcmitype/StillImage" /><dc:title></dc:title></cc:Work></rdf:RDF></metadata><defs
     id="defs6" /><g
     transform="matrix(2.3154473,0,0,-2.3154473,0,344.99901)"
     id="g10"><g
       transform="scale(0.1)"
       id="g12"><path
         id="path14"
         style="fill:#ed1c24;fill-opacity:1;fill-rule:nonzero;stroke:none"
         d="M 0,0 H 4318.82 V 1489.99 H 0 Z"
         inkscape:connector-curvature="0" /><path
         id="path16"
         style="fill:#ffffff;fill-opacity:1;fill-rule:nonzero;stroke:none"
         d="m 646.711,1126.61 c -25.184,43.49 -61.809,70.96 -117.895,70.96 -53.793,0 -112.168,-41.21 -121.32,-97.29 C 384.605,954.922 737.129,1015.58 691.348,726.008 663.879,553.184 536.832,430.711 360.566,430.711 c -119.035,0 -195.718,68.676 -239.214,168.254 L 247.258,705.41 c 12.59,-66.387 62.945,-125.906 135.055,-125.906 68.671,0 121.324,58.379 131.628,124.754 13.735,89.281 -64.097,114.461 -128.195,140.785 -103.008,45.781 -176.258,101.867 -154.516,235.777 22.895,143.07 147.653,258.67 293.008,258.67 76.692,0 176.266,-37.77 219.754,-96.14 l -97.281,-116.74"
         inkscape:connector-curvature="0" /><path
         id="path18"
         style="fill:#ffffff;fill-opacity:1;fill-rule:nonzero;stroke:none"
         d="m 934.867,1015.58 -48.07,-304.447 c -10.305,-64.102 -12.594,-140.781 68.672,-140.781 81.261,0 104.151,76.679 114.461,140.781 L 1118,1015.58 h 160.24 L 1225.59,684.805 C 1199.26,521.133 1100.83,435.289 933.723,435.289 c -167.106,0 -238.071,85.844 -211.746,249.516 l 52.652,330.775 h 160.238"
         inkscape:connector-curvature="0" /><path
         id="path20"
         style="fill:#ffffff;fill-opacity:1;fill-rule:nonzero;stroke:none"
         d="m 1701.68,735.168 c 11.45,75.539 -25.18,156.805 -107.59,156.805 -82.41,0 -146.5,-81.266 -157.95,-156.805 -11.44,-75.539 25.18,-157.949 107.6,-157.949 82.4,0 146.49,82.41 157.94,157.949 z m -212.89,228.91 c 43.5,43.492 106.45,69.812 165.97,69.812 159.09,0 233.48,-148.788 209.45,-296.441 -24.03,-153.367 -141.92,-302.16 -307.89,-302.16 -57.22,0 -113.31,25.18 -138.49,70.961 h -2.29 l -54.93,-352.52 h -160.24 l 136.2,861.85 h 160.24 l -8.02,-51.502"
         inkscape:connector-curvature="0" /><path
         id="path22"
         style="fill:#ffffff;fill-opacity:1;fill-rule:nonzero;stroke:none"
         d="m 2097.43,957.211 h 2.29 c 40.06,49.219 91.56,76.679 151.08,76.679 22.89,0 45.78,-5.71 64.09,-13.73 l -42.34,-148.793 c -17.17,13.735 -38.92,20.606 -62.95,20.606 -111.03,0 -138.5,-98.434 -152.23,-185.422 l -40.06,-252.949 h -160.24 l 89.28,561.978 h 160.23 l -9.15,-58.369"
         inkscape:connector-curvature="0" /><path
         id="path24"
         style="fill:#ffffff;fill-opacity:1;fill-rule:nonzero;stroke:none"
         d="m 2649.08,808.418 c 1.14,57.227 -26.33,113.309 -88.13,113.309 -64.09,0 -108.73,-54.934 -125.9,-113.309 z M 2414.44,708.84 c -10.3,-70.957 3.44,-151.086 87,-151.086 52.64,0 91.56,32.051 120.17,76.687 l 144.22,-24.031 c -57.24,-112.168 -165.97,-175.121 -283.86,-175.121 -173.97,0 -259.81,123.617 -233.48,294.152 27.47,170.539 138.48,304.449 320.47,304.449 184.27,0 244.94,-136.195 218.61,-305.589 l -3.43,-19.461 h -369.7"
         inkscape:connector-curvature="0" /><path
         id="path26"
         style="fill:#ffffff;fill-opacity:1;fill-rule:nonzero;stroke:none"
         d="m 3015.3,965.223 h 2.29 c 37.77,44.637 96.14,68.667 147.65,68.667 69.82,0 120.18,-28.61 147.65,-88.124 43.5,54.934 112.17,88.124 177.4,88.124 143.08,0 161.39,-107.581 141.93,-230.05 l -54.93,-350.238 h -160.25 l 46.93,295.3 c 8.01,54.938 28.62,156.801 -50.36,156.801 -86.99,0 -105.3,-117.887 -114.46,-176.262 l -43.49,-275.839 h -160.24 l 44.64,285 c 9.16,54.937 34.33,167.101 -49.22,167.101 -89.27,0 -104.15,-116.742 -113.31,-176.262 L 2934.04,453.602 H 2773.8 l 89.28,561.978 h 160.23 l -8.01,-50.357"
         inkscape:connector-curvature="0" /><path
         id="path28"
         style="fill:#ffffff;fill-opacity:1;fill-rule:nonzero;stroke:none"
         d="m 4060.23,808.418 c 1.15,57.227 -26.32,113.309 -88.13,113.309 -64.09,0 -108.73,-54.934 -125.9,-113.309 z M 3825.6,708.84 c -10.31,-70.957 3.43,-151.086 86.99,-151.086 52.64,0 91.56,32.051 120.17,76.687 l 144.22,-24.031 c -57.23,-112.168 -165.96,-175.121 -283.85,-175.121 -173.98,0 -259.82,123.617 -233.49,294.152 27.47,170.539 138.49,304.449 320.48,304.449 184.26,0 244.93,-136.195 218.6,-305.589 l -3.43,-19.461 H 3825.6"
         inkscape:connector-curvature="0" /></g></g></svg>